<svg width="43" height="47" viewBox="0 0 43 47" fill="none" xmlns="http://www.w3.org/2000/svg">
<path d="M23.4633 46.1427L19.6103 46.1828L19.5705 42.3564L15.7441 42.3962L15.7043 38.5698L11.8779 38.6096L11.838 34.7832L8.01162 34.8231L7.97178 30.9966L4.14537 31.0365L4.10554 27.2101L0.279128 27.2499L0.199181 19.5705L4.02559 19.5307L3.98575 15.7043L7.81216 15.6644L7.77233 11.838L11.5987 11.7982L11.5589 7.97179L15.3853 7.93195L15.3455 4.10554L19.1719 4.06571L19.132 0.239301L22.985 0.199189L23.1045 11.6784L42.2366 11.4792L42.4759 34.4643L23.3438 34.6634L23.4633 46.1427Z" fill="#131511"/>
</svg>
