<svg width="304" height="47" viewBox="0 0 304 47" fill="none" xmlns="http://www.w3.org/2000/svg">
<rect x="1.57328" y="1.57328" width="300.853" height="43.8534" fill="#FAFE41"/>
<rect x="1.57328" y="1.57328" width="300.853" height="43.8534" stroke="black" stroke-width="3.14657"/>
<path d="M102.907 16.4576C103.01 16.8697 103.061 17.3847 103.061 18.0028C103.061 18.5951 103.01 19.1102 102.907 19.548C103.01 19.9601 103.061 20.4751 103.061 21.0932C103.061 21.6855 103.01 22.2006 102.907 22.6384C103.01 23.0505 103.061 23.5655 103.061 24.1836C103.061 24.7759 103.01 25.291 102.907 25.7288H101.748C101.851 26.1409 101.902 26.6559 101.902 27.274C101.902 27.8663 101.851 28.3814 101.748 28.8192C101.851 29.2313 101.902 29.7463 101.902 30.3644C101.902 30.9567 101.851 31.4718 101.748 31.9096H100.975C101.078 32.3217 101.13 32.8367 101.13 33.4548C101.13 34.0471 101.078 34.5622 100.975 35H98.6575C98.5545 34.5622 98.503 34.0471 98.503 33.4548C98.503 32.8367 98.5545 32.3217 98.6575 31.9096H97.8849C97.7819 31.4718 97.7304 30.9567 97.7304 30.3644C97.7304 29.7463 97.7819 29.2313 97.8849 28.8192H95.5671C95.6701 29.2313 95.7216 29.7463 95.7216 30.3644C95.7216 30.9567 95.6701 31.4718 95.5671 31.9096H94.7945C94.8975 32.3217 94.949 32.8367 94.949 33.4548C94.949 34.0471 94.8975 34.5622 94.7945 35H92.4767C92.3737 34.5622 92.3222 34.0471 92.3222 33.4548C92.3222 32.8367 92.3737 32.3217 92.4767 31.9096H91.7041C91.6011 31.4718 91.5496 30.9567 91.5496 30.3644C91.5496 29.7463 91.6011 29.2313 91.7041 28.8192C91.6011 28.3814 91.5496 27.8663 91.5496 27.274C91.5496 26.6559 91.6011 26.1409 91.7041 25.7288H90.5452C90.4422 25.291 90.3907 24.7759 90.3907 24.1836C90.3907 23.5655 90.4422 23.0505 90.5452 22.6384C90.4422 22.2006 90.3907 21.6855 90.3907 21.0932C90.3907 20.4751 90.4422 19.9601 90.5452 19.548C90.4422 19.1102 90.3907 18.5951 90.3907 18.0028C90.3907 17.3847 90.4422 16.8697 90.5452 16.4576C90.4422 16.0198 90.3907 15.5047 90.3907 14.9124C90.3907 14.2943 90.4422 13.7793 90.5452 13.3672H93.6356C93.7386 13.7793 93.7901 14.2943 93.7901 14.9124C93.7901 15.5047 93.7386 16.0198 93.6356 16.4576C93.7386 16.8697 93.7901 17.3847 93.7901 18.0028C93.7901 18.5951 93.7386 19.1102 93.6356 19.548C93.7386 19.9601 93.7901 20.4751 93.7901 21.0932C93.7901 21.6855 93.7386 22.2006 93.6356 22.6384C93.7386 23.0505 93.7901 23.5655 93.7901 24.1836C93.7901 24.7759 93.7386 25.291 93.6356 25.7288C93.7386 26.1409 93.7901 26.6559 93.7901 27.274C93.7901 27.8663 93.7386 28.3814 93.6356 28.8192H94.7945C94.6915 28.3814 94.64 27.8663 94.64 27.274C94.64 26.6559 94.6915 26.1409 94.7945 25.7288H95.5671C95.4641 25.291 95.4126 24.7759 95.4126 24.1836C95.4126 23.5655 95.4641 23.0505 95.5671 22.6384C95.4641 22.2006 95.4126 21.6855 95.4126 21.0932C95.4126 20.4751 95.4641 19.9601 95.5671 19.548C95.4641 19.1102 95.4126 18.5951 95.4126 18.0028C95.4126 17.3847 95.4641 16.8697 95.5671 16.4576C95.4641 16.0198 95.4126 15.5047 95.4126 14.9124C95.4126 14.2943 95.4641 13.7793 95.5671 13.3672H97.8849C97.9879 13.7793 98.0394 14.2943 98.0394 14.9124C98.0394 15.5047 97.9879 16.0198 97.8849 16.4576C97.9879 16.8697 98.0394 17.3847 98.0394 18.0028C98.0394 18.5951 97.9879 19.1102 97.8849 19.548C97.9879 19.9601 98.0394 20.4751 98.0394 21.0932C98.0394 21.6855 97.9879 22.2006 97.8849 22.6384C97.9879 23.0505 98.0394 23.5655 98.0394 24.1836C98.0394 24.7759 97.9879 25.291 97.8849 25.7288H98.6575C98.7605 26.1409 98.812 26.6559 98.812 27.274C98.812 27.8663 98.7605 28.3814 98.6575 28.8192H99.8164C99.7134 28.3814 99.6619 27.8663 99.6619 27.274C99.6619 26.6559 99.7134 26.1409 99.8164 25.7288C99.7134 25.291 99.6619 24.7759 99.6619 24.1836C99.6619 23.5655 99.7134 23.0505 99.8164 22.6384C99.7134 22.2006 99.6619 21.6855 99.6619 21.0932C99.6619 20.4751 99.7134 19.9601 99.8164 19.548C99.7134 19.1102 99.6619 18.5951 99.6619 18.0028C99.6619 17.3847 99.7134 16.8697 99.8164 16.4576C99.7134 16.0198 99.6619 15.5047 99.6619 14.9124C99.6619 14.2943 99.7134 13.7793 99.8164 13.3672H102.907C103.01 13.7793 103.061 14.2943 103.061 14.9124C103.061 15.5047 103.01 16.0198 102.907 16.4576ZM113.738 25.7288C113.841 26.1409 113.893 26.6559 113.893 27.274C113.893 27.8663 113.841 28.3814 113.738 28.8192C113.841 29.2313 113.893 29.7463 113.893 30.3644C113.893 30.9567 113.841 31.4718 113.738 31.9096H119.919C120.022 32.3217 120.074 32.8367 120.074 33.4548C120.074 34.0471 120.022 34.5622 119.919 35H110.648C110.545 34.5622 110.493 34.0471 110.493 33.4548C110.493 32.8367 110.545 32.3217 110.648 31.9096C110.545 31.4718 110.493 30.9567 110.493 30.3644C110.493 29.7463 110.545 29.2313 110.648 28.8192C110.545 28.3814 110.493 27.8663 110.493 27.274C110.493 26.6559 110.545 26.1409 110.648 25.7288C110.545 25.291 110.493 24.7759 110.493 24.1836C110.493 23.5655 110.545 23.0505 110.648 22.6384C110.545 22.2006 110.493 21.6855 110.493 21.0932C110.493 20.4751 110.545 19.9601 110.648 19.548C110.545 19.1102 110.493 18.5951 110.493 18.0028C110.493 17.3847 110.545 16.8697 110.648 16.4576C110.545 16.0198 110.493 15.5047 110.493 14.9124C110.493 14.2943 110.545 13.7793 110.648 13.3672H119.919C120.022 13.7793 120.074 14.2943 120.074 14.9124C120.074 15.5047 120.022 16.0198 119.919 16.4576H113.738C113.841 16.8697 113.893 17.3847 113.893 18.0028C113.893 18.5951 113.841 19.1102 113.738 19.548C113.841 19.9601 113.893 20.4751 113.893 21.0932C113.893 21.6855 113.841 22.2006 113.738 22.6384H119.919C120.022 23.0505 120.074 23.5655 120.074 24.1836C120.074 24.7759 120.022 25.291 119.919 25.7288H113.738ZM140.022 31.9096C140.125 32.3217 140.176 32.8367 140.176 33.4548C140.176 34.0471 140.125 34.5622 140.022 35H129.205C129.102 34.5622 129.051 34.0471 129.051 33.4548C129.051 32.8367 129.102 32.3217 129.205 31.9096C129.102 31.4718 129.051 30.9567 129.051 30.3644C129.051 29.7463 129.102 29.2313 129.205 28.8192C129.102 28.3814 129.051 27.8663 129.051 27.274C129.051 26.6559 129.102 26.1409 129.205 25.7288C129.102 25.291 129.051 24.7759 129.051 24.1836C129.051 23.5655 129.102 23.0505 129.205 22.6384C129.102 22.2006 129.051 21.6855 129.051 21.0932C129.051 20.4751 129.102 19.9601 129.205 19.548C129.102 19.1102 129.051 18.5951 129.051 18.0028C129.051 17.3847 129.102 16.8697 129.205 16.4576C129.102 16.0198 129.051 15.5047 129.051 14.9124C129.051 14.2943 129.102 13.7793 129.205 13.3672H132.296C132.399 13.7793 132.45 14.2943 132.45 14.9124C132.45 15.5047 132.399 16.0198 132.296 16.4576C132.399 16.8697 132.45 17.3847 132.45 18.0028C132.45 18.5951 132.399 19.1102 132.296 19.548C132.399 19.9601 132.45 20.4751 132.45 21.0932C132.45 21.6855 132.399 22.2006 132.296 22.6384C132.399 23.0505 132.45 23.5655 132.45 24.1836C132.45 24.7759 132.399 25.291 132.296 25.7288C132.399 26.1409 132.45 26.6559 132.45 27.274C132.45 27.8663 132.399 28.3814 132.296 28.8192C132.399 29.2313 132.45 29.7463 132.45 30.3644C132.45 30.9567 132.399 31.4718 132.296 31.9096H140.022ZM158.579 28.8192C158.682 29.2313 158.734 29.7463 158.734 30.3644C158.734 30.9567 158.682 31.4718 158.579 31.9096H157.034C157.137 32.3217 157.189 32.8367 157.189 33.4548C157.189 34.0471 157.137 34.5622 157.034 35H149.308C149.205 34.5622 149.154 34.0471 149.154 33.4548C149.154 32.8367 149.205 32.3217 149.308 31.9096H147.763C147.66 31.4718 147.608 30.9567 147.608 30.3644C147.608 29.7463 147.66 29.2313 147.763 28.8192H146.218C146.115 28.3814 146.063 27.8663 146.063 27.274C146.063 26.6559 146.115 26.1409 146.218 25.7288C146.115 25.291 146.063 24.7759 146.063 24.1836C146.063 23.5655 146.115 23.0505 146.218 22.6384C146.115 22.2006 146.063 21.6855 146.063 21.0932C146.063 20.4751 146.115 19.9601 146.218 19.548H147.763C147.66 19.1102 147.608 18.5951 147.608 18.0028C147.608 17.3847 147.66 16.8697 147.763 16.4576H149.308C149.205 16.0198 149.154 15.5047 149.154 14.9124C149.154 14.2943 149.205 13.7793 149.308 13.3672H157.034C157.137 13.7793 157.189 14.2943 157.189 14.9124C157.189 15.5047 157.137 16.0198 157.034 16.4576H158.579C158.682 16.8697 158.734 17.3847 158.734 18.0028C158.734 18.5951 158.682 19.1102 158.579 19.548H155.489C155.386 19.1102 155.334 18.5951 155.334 18.0028C155.334 17.3847 155.386 16.8697 155.489 16.4576H150.853C150.956 16.8697 151.008 17.3847 151.008 18.0028C151.008 18.5951 150.956 19.1102 150.853 19.548H149.308C149.411 19.9601 149.463 20.4751 149.463 21.0932C149.463 21.6855 149.411 22.2006 149.308 22.6384C149.411 23.0505 149.463 23.5655 149.463 24.1836C149.463 24.7759 149.411 25.291 149.308 25.7288C149.411 26.1409 149.463 26.6559 149.463 27.274C149.463 27.8663 149.411 28.3814 149.308 28.8192H150.853C150.956 29.2313 151.008 29.7463 151.008 30.3644C151.008 30.9567 150.956 31.4718 150.853 31.9096H155.489C155.386 31.4718 155.334 30.9567 155.334 30.3644C155.334 29.7463 155.386 29.2313 155.489 28.8192H158.579ZM177.137 22.6384C177.24 23.0505 177.291 23.5655 177.291 24.1836C177.291 24.7759 177.24 25.291 177.137 25.7288C177.24 26.1409 177.291 26.6559 177.291 27.274C177.291 27.8663 177.24 28.3814 177.137 28.8192H175.978C176.081 29.2313 176.132 29.7463 176.132 30.3644C176.132 30.9567 176.081 31.4718 175.978 31.9096H174.046C174.149 32.3217 174.201 32.8367 174.201 33.4548C174.201 34.0471 174.149 34.5622 174.046 35H167.866C167.763 34.5622 167.711 34.0471 167.711 33.4548C167.711 32.8367 167.763 32.3217 167.866 31.9096H165.934C165.831 31.4718 165.78 30.9567 165.78 30.3644C165.78 29.7463 165.831 29.2313 165.934 28.8192H164.775C164.672 28.3814 164.621 27.8663 164.621 27.274C164.621 26.6559 164.672 26.1409 164.775 25.7288C164.672 25.291 164.621 24.7759 164.621 24.1836C164.621 23.5655 164.672 23.0505 164.775 22.6384C164.672 22.2006 164.621 21.6855 164.621 21.0932C164.621 20.4751 164.672 19.9601 164.775 19.548H165.934C165.831 19.1102 165.78 18.5951 165.78 18.0028C165.78 17.3847 165.831 16.8697 165.934 16.4576H167.866C167.763 16.0198 167.711 15.5047 167.711 14.9124C167.711 14.2943 167.763 13.7793 167.866 13.3672H174.046C174.149 13.7793 174.201 14.2943 174.201 14.9124C174.201 15.5047 174.149 16.0198 174.046 16.4576H175.978C176.081 16.8697 176.132 17.3847 176.132 18.0028C176.132 18.5951 176.081 19.1102 175.978 19.548H177.137C177.24 19.9601 177.291 20.4751 177.291 21.0932C177.291 21.6855 177.24 22.2006 177.137 22.6384ZM174.046 28.8192C173.943 28.3814 173.892 27.8663 173.892 27.274C173.892 26.6559 173.943 26.1409 174.046 25.7288C173.943 25.291 173.892 24.7759 173.892 24.1836C173.892 23.5655 173.943 23.0505 174.046 22.6384C173.943 22.2006 173.892 21.6855 173.892 21.0932C173.892 20.4751 173.943 19.9601 174.046 19.548H172.887C172.784 19.1102 172.733 18.5951 172.733 18.0028C172.733 17.3847 172.784 16.8697 172.887 16.4576H169.024C169.127 16.8697 169.179 17.3847 169.179 18.0028C169.179 18.5951 169.127 19.1102 169.024 19.548H167.866C167.969 19.9601 168.02 20.4751 168.02 21.0932C168.02 21.6855 167.969 22.2006 167.866 22.6384C167.969 23.0505 168.02 23.5655 168.02 24.1836C168.02 24.7759 167.969 25.291 167.866 25.7288C167.969 26.1409 168.02 26.6559 168.02 27.274C168.02 27.8663 167.969 28.3814 167.866 28.8192H169.024C169.127 29.2313 169.179 29.7463 169.179 30.3644C169.179 30.9567 169.127 31.4718 169.024 31.9096H172.887C172.784 31.4718 172.733 30.9567 172.733 30.3644C172.733 29.7463 172.784 29.2313 172.887 28.8192H174.046ZM195.694 16.4576C195.797 16.8697 195.849 17.3847 195.849 18.0028C195.849 18.5951 195.797 19.1102 195.694 19.548C195.797 19.9601 195.849 20.4751 195.849 21.0932C195.849 21.6855 195.797 22.2006 195.694 22.6384C195.797 23.0505 195.849 23.5655 195.849 24.1836C195.849 24.7759 195.797 25.291 195.694 25.7288C195.797 26.1409 195.849 26.6559 195.849 27.274C195.849 27.8663 195.797 28.3814 195.694 28.8192C195.797 29.2313 195.849 29.7463 195.849 30.3644C195.849 30.9567 195.797 31.4718 195.694 31.9096C195.797 32.3217 195.849 32.8367 195.849 33.4548C195.849 34.0471 195.797 34.5622 195.694 35H192.604C192.501 34.5622 192.449 34.0471 192.449 33.4548C192.449 32.8367 192.501 32.3217 192.604 31.9096C192.501 31.4718 192.449 30.9567 192.449 30.3644C192.449 29.7463 192.501 29.2313 192.604 28.8192C192.501 28.3814 192.449 27.8663 192.449 27.274C192.449 26.6559 192.501 26.1409 192.604 25.7288C192.501 25.291 192.449 24.7759 192.449 24.1836C192.449 23.5655 192.501 23.0505 192.604 22.6384C192.501 22.2006 192.449 21.6855 192.449 21.0932C192.449 20.4751 192.501 19.9601 192.604 19.548H191.445C191.548 19.9601 191.599 20.4751 191.599 21.0932C191.599 21.6855 191.548 22.2006 191.445 22.6384C191.548 23.0505 191.599 23.5655 191.599 24.1836C191.599 24.7759 191.548 25.291 191.445 25.7288H190.672C190.775 26.1409 190.827 26.6559 190.827 27.274C190.827 27.8663 190.775 28.3814 190.672 28.8192C190.775 29.2313 190.827 29.7463 190.827 30.3644C190.827 30.9567 190.775 31.4718 190.672 31.9096H188.355C188.252 31.4718 188.2 30.9567 188.2 30.3644C188.2 29.7463 188.252 29.2313 188.355 28.8192C188.252 28.3814 188.2 27.8663 188.2 27.274C188.2 26.6559 188.252 26.1409 188.355 25.7288H187.582C187.479 25.291 187.427 24.7759 187.427 24.1836C187.427 23.5655 187.479 23.0505 187.582 22.6384C187.479 22.2006 187.427 21.6855 187.427 21.0932C187.427 20.4751 187.479 19.9601 187.582 19.548H186.423C186.526 19.9601 186.578 20.4751 186.578 21.0932C186.578 21.6855 186.526 22.2006 186.423 22.6384C186.526 23.0505 186.578 23.5655 186.578 24.1836C186.578 24.7759 186.526 25.291 186.423 25.7288C186.526 26.1409 186.578 26.6559 186.578 27.274C186.578 27.8663 186.526 28.3814 186.423 28.8192C186.526 29.2313 186.578 29.7463 186.578 30.3644C186.578 30.9567 186.526 31.4718 186.423 31.9096C186.526 32.3217 186.578 32.8367 186.578 33.4548C186.578 34.0471 186.526 34.5622 186.423 35H183.333C183.23 34.5622 183.178 34.0471 183.178 33.4548C183.178 32.8367 183.23 32.3217 183.333 31.9096C183.23 31.4718 183.178 30.9567 183.178 30.3644C183.178 29.7463 183.23 29.2313 183.333 28.8192C183.23 28.3814 183.178 27.8663 183.178 27.274C183.178 26.6559 183.23 26.1409 183.333 25.7288C183.23 25.291 183.178 24.7759 183.178 24.1836C183.178 23.5655 183.23 23.0505 183.333 22.6384C183.23 22.2006 183.178 21.6855 183.178 21.0932C183.178 20.4751 183.23 19.9601 183.333 19.548C183.23 19.1102 183.178 18.5951 183.178 18.0028C183.178 17.3847 183.23 16.8697 183.333 16.4576C183.23 16.0198 183.178 15.5047 183.178 14.9124C183.178 14.2943 183.23 13.7793 183.333 13.3672H187.196C187.299 13.7793 187.35 14.2943 187.35 14.9124C187.35 15.5047 187.299 16.0198 187.196 16.4576H188.355C188.458 16.8697 188.509 17.3847 188.509 18.0028C188.509 18.5951 188.458 19.1102 188.355 19.548H188.934C189.037 19.9601 189.089 20.4751 189.089 21.0932C189.089 21.6855 189.037 22.2006 188.934 22.6384H190.093C189.99 22.2006 189.938 21.6855 189.938 21.0932C189.938 20.4751 189.99 19.9601 190.093 19.548H190.672C190.569 19.1102 190.518 18.5951 190.518 18.0028C190.518 17.3847 190.569 16.8697 190.672 16.4576H191.831C191.728 16.0198 191.677 15.5047 191.677 14.9124C191.677 14.2943 191.728 13.7793 191.831 13.3672H195.694C195.797 13.7793 195.849 14.2943 195.849 14.9124C195.849 15.5047 195.797 16.0198 195.694 16.4576ZM206.526 25.7288C206.629 26.1409 206.68 26.6559 206.68 27.274C206.68 27.8663 206.629 28.3814 206.526 28.8192C206.629 29.2313 206.68 29.7463 206.68 30.3644C206.68 30.9567 206.629 31.4718 206.526 31.9096H212.707C212.81 32.3217 212.861 32.8367 212.861 33.4548C212.861 34.0471 212.81 34.5622 212.707 35H203.435C203.332 34.5622 203.281 34.0471 203.281 33.4548C203.281 32.8367 203.332 32.3217 203.435 31.9096C203.332 31.4718 203.281 30.9567 203.281 30.3644C203.281 29.7463 203.332 29.2313 203.435 28.8192C203.332 28.3814 203.281 27.8663 203.281 27.274C203.281 26.6559 203.332 26.1409 203.435 25.7288C203.332 25.291 203.281 24.7759 203.281 24.1836C203.281 23.5655 203.332 23.0505 203.435 22.6384C203.332 22.2006 203.281 21.6855 203.281 21.0932C203.281 20.4751 203.332 19.9601 203.435 19.548C203.332 19.1102 203.281 18.5951 203.281 18.0028C203.281 17.3847 203.332 16.8697 203.435 16.4576C203.332 16.0198 203.281 15.5047 203.281 14.9124C203.281 14.2943 203.332 13.7793 203.435 13.3672H212.707C212.81 13.7793 212.861 14.2943 212.861 14.9124C212.861 15.5047 212.81 16.0198 212.707 16.4576H206.526C206.629 16.8697 206.68 17.3847 206.68 18.0028C206.68 18.5951 206.629 19.1102 206.526 19.548C206.629 19.9601 206.68 20.4751 206.68 21.0932C206.68 21.6855 206.629 22.2006 206.526 22.6384H212.707C212.81 23.0505 212.861 23.5655 212.861 24.1836C212.861 24.7759 212.81 25.291 212.707 25.7288H206.526Z" fill="#131511"/>
</svg>
